# xmcd
#
# Track frame offsets:
#  150
#  14337
#  30090
#  48240
#  60540
#  75485
#  92492
#  101625
#  116720
#  129585
#  144615
#  157487
#  165967
#  177260
#
# Disc length: 2502 seconds
#
# Revision: 0
# Processed by: cddbd v1.4PL0 Copyright (c) Steve Scherf et al.
# Submitted via: AltoMP3_Maker 3.0
#
DISCID=ab09c40e
DTITLE=Smoke Creek - Smoke Creek
DYEAR=1900
DGENRE=
TTITLE0=Banjo Tramp
TTITLE1=Whiskey Road
TTITLE2=Down by the Barber Pole
TTITLE3=I Heard the Bluebird Sing
TTITLE4=He Never Looked Her Way
TTITLE5=Coleman's March - Briarpicker Brown
TTITLE6=Old Bangum
TTITLE7=Red Pickup
TTITLE8=Foggy Old London
TTITLE9=You Already Gave the Bride Away
TTITLE10=Mac's Redemption
TTITLE11=Walls
TTITLE12=The Devil in a Private Hell
TTITLE13=Turkey in the Straw
EXTD=
EXTT0=
EXTT1=
EXTT2=
EXTT3=
EXTT4=
EXTT5=
EXTT6=
EXTT7=
EXTT8=
EXTT9=
EXTT10=
EXTT11=
EXTT12=
EXTT13=
PLAYORDER=
